<svg width="48" height="48" viewBox="0 0 48 48" fill="none" xmlns="http://www.w3.org/2000/svg">
<path d="M24 44C12.954 44 4 35.046 4 24C4 12.954 12.954 4 24 4C35.046 4 44 12.954 44 24C44 35.046 35.046 44 24 44ZM24 40C28.2435 40 32.3131 38.3143 35.3137 35.3137C38.3143 32.3131 40 28.2435 40 24C40 19.7565 38.3143 15.6869 35.3137 12.6863C32.3131 9.68571 28.2435 8 24 8C19.7565 8 15.6869 9.68571 12.6863 12.6863C9.68571 15.6869 8 19.7565 8 24C8 28.2435 9.68571 32.3131 12.6863 35.3137C15.6869 38.3143 19.7565 40 24 40ZM22 30H26V34H22V30ZM26 26.71V28H22V25C22 24.4696 22.2107 23.9609 22.5858 23.5858C22.9609 23.2107 23.4696 23 24 23C24.5682 23 25.1246 22.8386 25.6047 22.5347C26.0847 22.2307 26.4685 21.7967 26.7115 21.2832C26.9546 20.7696 27.0467 20.1976 26.9774 19.6337C26.908 19.0698 26.6799 18.5372 26.3197 18.0978C25.9594 17.6585 25.4818 17.3305 24.9424 17.1519C24.4031 16.9734 23.8241 16.9517 23.2729 17.0894C22.7216 17.2271 22.2208 17.5185 21.8287 17.9296C21.4366 18.3408 21.1694 18.8549 21.058 19.412L17.134 18.626C17.3773 17.4102 17.939 16.2807 18.7618 15.3532C19.5847 14.4256 20.639 13.7332 21.8172 13.3466C22.9953 12.9601 24.255 12.8934 25.4674 13.1532C26.6798 13.4131 27.8014 13.9902 28.7176 14.8256C29.6339 15.6611 30.3118 16.7248 30.6822 17.9081C31.0526 19.0914 31.1021 20.3519 30.8257 21.5606C30.5493 22.7693 29.9569 23.883 29.109 24.7877C28.2612 25.6925 27.1883 26.3558 26 26.71Z" fill="#989C30"/>
</svg>
