<svg width="48" height="48" viewBox="0 0 48 48" fill="none" xmlns="http://www.w3.org/2000/svg">
<path d="M43.5 40.125L31.8675 28.4906C33.7421 25.9145 34.7506 22.8098 34.7475 19.6238C34.7475 11.2847 27.9628 4.5 19.6238 4.5C11.2847 4.5 4.5 11.2847 4.5 19.6238C4.5 27.9628 11.2847 34.7475 19.6238 34.7475C22.8098 34.7506 25.9145 33.7421 28.4906 31.8675L40.125 43.5L43.5 40.125ZM19.6238 29.9709C17.577 29.9711 15.5762 29.3644 13.8743 28.2274C12.1724 27.0904 10.8459 25.4742 10.0626 23.5833C9.27923 21.6924 9.07422 19.6117 9.47348 17.6042C9.87273 15.5968 10.8583 13.7529 12.3056 12.3056C13.7529 10.8583 15.5968 9.87273 17.6042 9.47348C19.6117 9.07422 21.6924 9.27923 23.5833 10.0626C25.4742 10.8459 27.0904 12.1724 28.2274 13.8743C29.3644 15.5762 29.9711 17.577 29.9709 19.6238C29.9677 22.367 28.8765 24.997 26.9368 26.9368C24.997 28.8765 22.367 29.9677 19.6238 29.9709Z" fill="#989C30"/>
</svg>
