<svg width="37" height="37" viewBox="0 0 37 37" fill="none" xmlns="http://www.w3.org/2000/svg">
<g clip-path="url(#clip0_122_11)">
<mask id="mask0_122_11" style="mask-type:luminance" maskUnits="userSpaceOnUse" x="0" y="0" width="37" height="37">
<path d="M0 0H37V37H0V0Z" fill="white"/>
</mask>
<g mask="url(#mask0_122_11)">
<path fill-rule="evenodd" clip-rule="evenodd" d="M37 18.5C37 28.7166 28.7166 37 18.5 37C8.28337 37 0 28.7166 0 18.5C0 8.28337 8.28337 0 18.5 0C28.7166 0 37 8.28337 37 18.5ZM19.1629 13.6576C17.3643 14.4058 13.7681 15.9547 8.37433 18.3042C7.49867 18.6526 7.03976 18.9933 6.99762 19.3263C6.92671 19.8906 7.63279 20.1126 8.59171 20.4132L8.99717 20.5427C9.94221 20.8495 11.2125 21.2087 11.8724 21.2226C12.4716 21.2349 13.1407 20.9883 13.8796 20.4826C18.9178 17.0806 21.5186 15.3612 21.682 15.3242C21.7976 15.298 21.958 15.264 22.0659 15.3612C22.1738 15.4567 22.163 15.6387 22.1522 15.688C22.0813 15.9855 19.3155 18.5586 17.8818 19.8906C17.4347 20.3053 17.1187 20.5998 17.0539 20.6676C16.9069 20.8166 16.762 20.96 16.6192 21.0977C15.7404 21.9425 15.0837 22.5777 16.6562 23.6137C17.4116 24.1117 18.0159 24.5233 18.6187 24.9334C19.277 25.382 19.9338 25.8291 20.7847 26.3872C21.0006 26.5311 21.2087 26.6749 21.4091 26.8188C22.1753 27.3661 22.8645 27.8564 23.7155 27.7793C24.2088 27.733 24.7206 27.269 24.9796 25.883C25.5917 22.6055 26.7972 15.5076 27.0763 12.5815C27.0948 12.3386 27.0844 12.0944 27.0455 11.8539C27.0239 11.6592 26.9291 11.4801 26.7803 11.3528C26.5598 11.1725 26.2176 11.1339 26.0634 11.137C25.3681 11.1493 24.3013 11.5209 19.1629 13.6576Z" fill="#627425"/>
</g>
</g>
<defs>
<clipPath id="clip0_122_11">
<rect width="37" height="37" fill="white"/>
</clipPath>
</defs>
</svg>
