<svg width="37" height="37" viewBox="0 0 37 37" fill="none" xmlns="http://www.w3.org/2000/svg">
<g clip-path="url(#clip0_122_9)">
<path d="M14.6289 0.004625L15.7528 0H21.2472L22.3727 0.004625L23.7817 0.0200417L24.4493 0.0308333L25.0937 0.0477917L25.715 0.069375L26.3132 0.0940417L26.8897 0.126417L27.4447 0.164958L27.9766 0.211208L28.49 0.262083C31.1725 0.56425 33.0117 1.21175 34.3992 2.59925C35.7867 3.98675 36.4342 5.82442 36.7364 8.50846L36.7888 9.02183L36.8335 9.55525L36.872 10.1102L36.9029 10.6853L36.9414 11.5918L36.9599 12.2239L36.98 13.2167L36.9938 14.6273L37 16.1382L36.9985 21.2457L36.9938 22.3711L36.9784 23.7802L36.9676 24.4477L36.9507 25.0922L36.9291 25.7135L36.9044 26.3116L36.872 26.8882L36.8335 27.4432L36.7872 27.9751L36.7364 28.4885C36.4342 31.171 35.7867 33.0102 34.3992 34.3977C33.0117 35.7852 31.174 36.4327 28.49 36.7348L27.9766 36.7873L27.4432 36.832L26.8882 36.8705L26.3132 36.9013L25.4067 36.9399L24.7746 36.9584L23.7817 36.9784L22.3711 36.9923L20.8603 36.9985L15.7528 36.9969L14.6273 36.9923L13.2183 36.9769L12.5507 36.9661L11.9063 36.9491L11.285 36.9275L10.6868 36.9029L10.1102 36.8705L9.55525 36.832L9.02337 36.7857L8.51 36.7348C5.8275 36.4327 3.98829 35.7852 2.60079 34.3977C1.21329 33.0102 0.565792 31.1725 0.263625 28.4885L0.211208 27.9751L0.1665 27.4417L0.127958 26.8867L0.097125 26.3116L0.0585833 25.4051L0.0400833 24.773L0.0200417 23.7802L0.00616667 22.3696L0 20.8587L0.00154167 15.7512L0.00616667 14.6258L0.0215833 13.2167L0.032375 12.5492L0.0493333 11.9047L0.0709167 11.2835L0.0955833 10.6853L0.127958 10.1087L0.1665 9.55371L0.21275 9.02183L0.263625 8.50846C0.565792 5.82596 1.21329 3.98675 2.60079 2.59925C3.98829 1.21175 5.82596 0.56425 8.51 0.262083L9.02337 0.209667L9.55679 0.164958L10.1118 0.126417L10.6868 0.0955833L11.5933 0.0570417L12.2254 0.0385417L13.2183 0.0185L14.6289 0.004625ZM10.4679 11.2526H6.24375C6.44417 20.8726 11.2542 26.6539 19.6871 26.6539H20.165V21.1501C23.2638 21.4585 25.6071 23.7247 26.5475 26.6539H30.9258C29.7233 22.2755 26.5629 19.8551 24.5896 18.9301C26.5629 17.7893 29.3379 15.0143 30.0008 11.2526H26.0233C25.16 14.3051 22.6008 17.0801 20.165 17.3422V11.2526H16.1875V21.921C13.7208 21.3043 10.6067 18.3135 10.4679 11.2526Z" fill="#627425"/>
</g>
<defs>
<clipPath id="clip0_122_9">
<rect width="37" height="37" fill="white"/>
</clipPath>
</defs>
</svg>
